<svg width="1152" height="459" viewBox="0 0 1152 459" fill="none" xmlns="http://www.w3.org/2000/svg">
<path d="M1152.01 459V402.886C1117.49 405.108 1083 407.655 1048.48 409.684C1010.89 411.882 973.346 414.561 935.788 417.059C930.226 417.431 926.503 415.462 925.65 409.733C923.092 392.593 919.945 375.574 915.345 358.844C914.119 354.388 915.489 351.061 920.269 349.595C922.407 348.935 924.497 348.13 926.659 347.602C955.546 340.491 984.048 331.988 1012.75 324.241C1052.02 313.648 1091.18 302.658 1130.4 291.921C1137.61 289.951 1144.82 287.969 1152.04 285.987V169.112C1132.85 176.979 1113.67 184.846 1094.48 192.689C1026.81 220.361 959.149 248.058 891.599 276.019C886.001 278.337 882.566 277.604 879.395 272.091C871.372 258.147 862.351 244.839 852.298 232.228C846.257 224.649 846.605 222.896 854.58 217.755C866.027 210.369 877.618 203.21 889.16 195.98C954.861 154.784 1020.17 112.975 1085.77 71.6222C1107.88 57.69 1129.96 43.6736 1152.02 29.6692V0.999956H985.309C959.882 22.9793 934.382 44.8626 908.871 66.7459C871.672 98.6341 834.558 130.618 797.239 162.374C792.326 166.554 788.675 166.806 783.618 162.963C770.202 152.778 756.581 142.833 741.796 134.666C736.907 131.975 736.138 129.381 739.814 124.841C757.278 103.318 774.982 81.9994 792.603 60.5965C808.974 40.707 825.381 20.8415 841.8 0.987946H719.995C702.015 32.0473 684.07 63.1188 666.15 94.2142C663.471 98.8623 660.36 100.556 655.243 99.1626C638.26 94.5145 621.048 90.9113 603.523 88.9175C597.95 88.2809 595.668 85.1462 596.437 79.7534C599.524 58.2304 601.722 36.5873 604.653 15.0403C605.289 10.3562 605.902 5.67208 606.514 0.987946H504.167C504.239 1.48038 504.312 1.98482 504.384 2.47726C508.083 28.1679 512.227 53.7865 515.59 79.5252C516.287 84.894 515.446 88.2449 509.452 88.9535C492.445 90.9713 475.665 94.1541 459.246 99.0665C453.408 100.808 449.517 99.3547 446.25 93.9139C427.704 62.9266 409.099 31.9513 390.422 0.999956H267.908C272.725 6.64494 277.541 12.2899 282.358 17.9469C299.978 38.6892 317.574 59.4435 335.123 80.2459C347.891 95.3792 360.923 110.272 373.402 125.646C376.009 128.853 377.066 131.699 372.826 134.185C357.187 143.35 342.353 153.667 328 164.692C324.385 167.467 320.974 167.443 317.322 164.224C311.581 159.143 305.491 154.447 299.666 149.451C271.848 125.598 243.898 101.901 215.876 78.3001C192.022 58.2184 167.988 38.3409 144.374 17.9949C137.756 12.2899 131.102 6.63293 124.423 0.999956H0.0120111V56.2367C30.9527 75.898 61.9775 95.4152 93.1103 114.752C125.721 135.014 158.091 155.636 190.725 175.85C214.098 190.323 237.364 204.988 260.57 219.737C265.242 222.704 266.551 225.658 262.816 230.51C252.39 244.034 242.168 257.738 233.869 272.728C231.07 277.784 227.383 278.925 222.134 276.463C202.388 267.215 182.149 259.108 162.198 250.328C119.559 231.591 76.7031 213.335 33.9435 194.863C22.641 189.975 11.3265 185.098 0.0120111 180.21V291.692C15.3743 296.184 30.7125 300.748 46.0627 305.264C68.8478 311.978 91.4888 319.221 114.358 325.538C139.161 332.384 163.82 339.723 188.659 346.437C199.985 349.499 201.703 353.043 197.307 364.224C196.947 365.149 196.67 366.098 196.466 367.059C192.599 380.162 190.809 393.71 188.154 407.054C188.743 417.503 187.145 419.149 176.54 418.584C168.432 418.152 160.325 417.672 152.229 417.167C111.463 414.333 70.6975 411.486 29.9317 408.688C19.9625 408.003 9.98125 407.342 0 406.67V458.976H1152.01V459Z" fill="#F40036"/>
</svg>
