<svg width="27" height="39" viewBox="0 0 27 39" fill="none" xmlns="http://www.w3.org/2000/svg">
<path d="M22.989 33.4587C22.3318 32.2976 21.5193 30.6435 20.5455 28.4935C19.5717 26.3435 18.2962 23.5164 16.716 20.0123C16.3755 19.2402 16.011 18.4294 15.6227 17.5831C15.2344 16.7605 14.8341 15.8904 14.4189 14.9728H23.21V12.7248H13.7289L15.4435 9.75223H23.21V7.53986H16.719C17.8869 5.50864 18.8578 3.76845 19.6374 2.31927C19.9391 1.74614 20.2199 1.20863 20.4798 0.70083C19.5209 0.397929 18.5322 0.160359 17.5165 0C17.418 0.291023 17.3104 0.593924 17.1909 0.905734C16.486 2.69344 15.4046 4.90581 13.9469 7.53986H2.67946V9.75223H12.7073L10.9926 12.7218H2.67946V14.9698H9.71714C8.23552 17.4821 6.86144 19.8638 5.59789 22.1118C4.33134 24.3835 3.23805 26.486 2.31503 28.4192C1.392 30.3525 0.675092 32.1283 0.164292 33.7467C0.107537 33.9309 0.0507812 34.109 0 34.2872C1.16498 35.4335 2.47335 36.4402 3.88925 37.2806C3.78768 36.8292 3.7369 36.3125 3.7369 35.7364C3.7369 34.504 3.94301 33.1855 4.35823 31.7838C4.74655 30.3822 5.25735 28.9686 5.89062 27.5432C6.5239 26.1178 7.22886 24.6924 8.00551 23.267C8.78217 21.8415 9.54986 20.4755 10.3026 19.1719L11.2137 21.1288C12.4295 23.6916 13.4989 25.9366 14.4219 27.8728C15.321 29.8061 16.1245 31.4601 16.8295 32.838C17.5345 34.2159 18.1797 35.3503 18.7622 36.2442C19.3208 37.1618 19.8555 37.8864 20.3663 38.4179C20.5694 38.6407 20.7725 38.8307 20.9816 38.9941C22.7858 38.3675 24.4706 37.4974 26.003 36.4194C25.537 36.3897 25.0949 36.1848 24.6707 35.8077C24.2047 35.4275 23.6461 34.6436 22.989 33.4587Z" fill="#F40136"/>
</svg>
