<?xml version="1.0" encoding="UTF-8" standalone="no"?>
<svg
   xmlns:dc="http://purl.org/dc/elements/1.1/"
   xmlns:cc="http://creativecommons.org/ns#"
   xmlns:rdf="http://www.w3.org/1999/02/22-rdf-syntax-ns#"
   xmlns:svg="http://www.w3.org/2000/svg"
   xmlns="http://www.w3.org/2000/svg"
   xmlns:sodipodi="http://sodipodi.sourceforge.net/DTD/sodipodi-0.dtd"
   xmlns:inkscape="http://www.inkscape.org/namespaces/inkscape"
   width="66"
   height="66"
   viewBox="0 0 66 66"
   fill="none"
   version="1.1"
   id="svg4"
   sodipodi:docname="Icon3.svg"
   inkscape:version="1.0.1 (3bc2e813f5, 2020-09-07)">
  <metadata
     id="metadata10">
    <rdf:RDF>
      <cc:Work
         rdf:about="">
        <dc:format>image/svg+xml</dc:format>
        <dc:type
           rdf:resource="http://purl.org/dc/dcmitype/StillImage" />
        <dc:title></dc:title>
      </cc:Work>
    </rdf:RDF>
  </metadata>
  <defs
     id="defs8" />
  <sodipodi:namedview
     pagecolor="#ffffff"
     bordercolor="#666666"
     borderopacity="1"
     objecttolerance="10"
     gridtolerance="10"
     guidetolerance="10"
     inkscape:pageopacity="0"
     inkscape:pageshadow="2"
     inkscape:window-width="1198"
     inkscape:window-height="1311"
     id="namedview6"
     showgrid="false"
     showguides="true"
     inkscape:guide-bbox="true"
     inkscape:zoom="9.4280904"
     inkscape:cx="25.780983"
     inkscape:cy="36.729417"
     inkscape:window-x="2392"
     inkscape:window-y="0"
     inkscape:window-maximized="0"
     inkscape:current-layer="svg4">
    <sodipodi:guide
       position="32.502605,66.815383"
       orientation="1,0"
       id="guide12" />
    <sodipodi:guide
       position="32.250698,33.510653"
       orientation="0,-1"
       id="guide14" />
  </sodipodi:namedview>
  <circle
     cx="33"
     cy="33"
     r="33"
     fill="#D0D0D0"
     fill-opacity="0.12"
     id="circle2" />
  <path
     d="m 49.619733,48.347401 h -3.1783 v -9.5349 c 0,-0.5856 -0.4738,-1.0595 -1.0595,-1.0595 h -4.2378 c -0.5855,0 -1.0595,0.4738 -1.0595,1.0595 v 9.5349 h -2.1188 v -15.8914 c 0,-0.5855 -0.4738,-1.0594 -1.0595,-1.0594 h -4.2377 c -0.5856,0 -1.0595,0.4737 -1.0595,1.0594 v 15.8915 h -2.1188 v -9.5349 c 0,-0.5855 -0.4738,-1.0594 -1.0595,-1.0594 h -4.23778 c -0.58556,0 -1.05936,0.4737 -1.05936,1.0594 v 9.5349 h -4.23777 v -32.84233 c 0,-0.585558 -0.47379,-1.05947 -1.05947,-1.05947 -0.58568,0 -1.05947,0.473793 -1.05947,1.05947 v 3.1783 h -1.05948 c -0.585558,0 -1.05947,0.4738 -1.05947,1.05948 0,0.58568 0.473792,1.05947 1.05947,1.05947 h 1.05948 v 2.11883 h -1.05948 c -0.585558,0 -1.05947,0.47379 -1.05947,1.05947 0,0.58568 0.473792,1.05948 1.05947,1.05948 h 1.05948 v 2.1188 h -1.05948 c -0.585558,0 -1.05947,0.4738 -1.05947,1.0595 0,0.5857 0.473792,1.0595 1.05947,1.0595 h 1.05948 v 2.1188 h -1.05948 c -0.585558,0 -1.05947,0.4738 -1.05947,1.0595 0,0.5856 0.473792,1.0594 1.05947,1.0594 h 1.05948 v 2.1189 h -1.05948 c -0.585558,0 -1.05947,0.4738 -1.05947,1.0593 0,0.5856 0.473792,1.0595 1.05947,1.0595 h 1.05948 v 2.1188 h -1.05948 c -0.585558,0 -1.05947,0.4738 -1.05947,1.0595 0,0.5857 0.473792,1.0595 1.05947,1.0595 h 1.05948 v 2.1188 h -1.05948 c -0.585558,0 -1.05947,0.4738 -1.05947,1.0595 0,0.5856 0.473792,1.0594 1.05947,1.0594 h 1.05948 v 2.1189 h -1.05948 c -0.585558,0 -1.05947,0.4738 -1.05947,1.0594 0,0.5857 0.473792,1.0595 1.05947,1.0595 h 33.90173 c 0.5855,0 1.0594,-0.4738 1.0594,-1.0595 0,-0.5856 -0.4734,-1.0598 -1.0589,-1.0598 z m -23.3075,-12.7131 c 1.7526,0 3.1783,-1.4256 3.1783,-3.1783 0,-0.3299 -0.0648,-0.642 -0.1585,-0.9415 l 3.6958,-2.7716 c 0.5044,0.3368 1.1091,0.5348 1.7598,0.5348 0.6506,0 1.255,-0.198 1.7592,-0.5346 l 3.6962,2.7721 c -0.0936,0.2993 -0.1582,0.6111 -0.1582,0.9408 0,1.7527 1.4256,3.1783 3.1783,3.1783 1.7526,0 3.1783,-1.4256 3.1783,-3.1783 0,-1.7526 -1.4257,-3.1783 -3.1783,-3.1783 -0.6509,0 -1.2555,0.198 -1.7599,0.5349 l -3.6959,-2.7717 c 0.0937,-0.2995 0.1585,-0.6115 0.1585,-0.9415 0,-1.7526 -1.4257,-3.17827 -3.1783,-3.17827 -1.7526,0 -3.1783,1.42567 -3.1783,3.17827 0,0.3298 0.0647,0.6417 0.1583,0.9408 l -3.6962,2.7722 c -0.5042,-0.3367 -1.1088,-0.5347 -1.7592,-0.5347 -1.75264,0 -3.17832,1.4257 -3.17832,3.1783 0,1.7527 1.4258,3.1783 3.17842,3.1783 z"
     fill="#f40136"
     id="path2" />
</svg>
