<?xml version="1.0" encoding="UTF-8" standalone="no"?>
<svg
   xmlns:dc="http://purl.org/dc/elements/1.1/"
   xmlns:cc="http://creativecommons.org/ns#"
   xmlns:rdf="http://www.w3.org/1999/02/22-rdf-syntax-ns#"
   xmlns:svg="http://www.w3.org/2000/svg"
   xmlns="http://www.w3.org/2000/svg"
   xmlns:sodipodi="http://sodipodi.sourceforge.net/DTD/sodipodi-0.dtd"
   xmlns:inkscape="http://www.inkscape.org/namespaces/inkscape"
   width="66"
   height="66"
   viewBox="0 0 66 66"
   fill="none"
   version="1.1"
   id="svg4"
   sodipodi:docname="Icon4.svg"
   inkscape:version="1.0.1 (3bc2e813f5, 2020-09-07)">
  <metadata
     id="metadata10">
    <rdf:RDF>
      <cc:Work
         rdf:about="">
        <dc:format>image/svg+xml</dc:format>
        <dc:type
           rdf:resource="http://purl.org/dc/dcmitype/StillImage" />
        <dc:title></dc:title>
      </cc:Work>
    </rdf:RDF>
  </metadata>
  <defs
     id="defs8" />
  <sodipodi:namedview
     pagecolor="#ffffff"
     bordercolor="#666666"
     borderopacity="1"
     objecttolerance="10"
     gridtolerance="10"
     guidetolerance="10"
     inkscape:pageopacity="0"
     inkscape:pageshadow="2"
     inkscape:window-width="1198"
     inkscape:window-height="1311"
     id="namedview6"
     showgrid="false"
     showguides="true"
     inkscape:guide-bbox="true"
     inkscape:zoom="11.313709"
     inkscape:cx="25.896"
     inkscape:cy="39.385985"
     inkscape:window-x="2392"
     inkscape:window-y="0"
     inkscape:window-maximized="0"
     inkscape:current-layer="svg4">
    <sodipodi:guide
       position="30.444261,33.500709"
       orientation="0,-1"
       id="guide12" />
    <sodipodi:guide
       position="32.526912,33.500709"
       orientation="1,0"
       id="guide14" />
  </sodipodi:namedview>
  <circle
     cx="33"
     cy="33"
     r="33"
     fill="#D0D0D0"
     fill-opacity="0.12"
     id="circle2" />
  <path
     d="m 49.5564,46.108535 c -0.5831,0 -1.0588,-0.4745 -1.0588,-1.0588 0,-0.5853 -0.4736,-1.0587 -1.0587,-1.0587 H 36.8506 c -0.5853,0 -1.0588,0.4736 -1.0588,1.0587 0,0.5843 -0.4756,1.0588 -1.0587,1.0588 -0.5853,0 -1.0588,0.4736 -1.0588,1.0588 v 2.1177 c 0,0.5853 0.4736,1.0587 1.0588,1.0587 h 14.8234 c 0.5853,0 1.0588,-0.4736 1.0588,-1.0587 v -2.1177 c -10e-5,-0.5852 -0.4737,-1.0588 -1.0589,-1.0588 z m -34.63087,-0.5666 c -0.41364,0.4137 -0.41364,1.0837 0,1.4972 l 2.99442,2.9945 c 0.41364,0.4136 1.08369,0.4136 1.49721,0 l 6.73854,-6.7381 -4.492,-4.4922 z m 16.04157,-16.0425 -7.80619,7.8066 4.49199,4.4923 7.8072,-7.8067 z m 5.9903,2.9951 6.6098,-6.6098 -4.4927,-4.49173 -6.6094,6.60943 z m -9.295,-6.2997 c 0.1985,0.1984 0.4674,0.3101 0.7486,0.3101 h 2.5561 l 6.6099,-6.60879 -4e-4,-2.55765 c 0,-0.28121 -0.1117,-0.55013 -0.3102,-0.74861 l -1.9356,-1.935647 c -0.3971,-0.397071 -1.1002,-0.397071 -1.4973,0 l -8.1066,8.107587 c -0.4136,0.41364 -0.4136,1.08369 0,1.49722 z m 10.7929,10.3534 c 0,0.2812 0.1117,0.5501 0.3102,0.7486 l 1.9357,1.9356 c 0.4136,0.4137 1.0837,0.4137 1.4972,0 l 8.1066,-8.1065 c 0.4137,-0.4136 0.4137,-1.0837 0,-1.4972 l -1.9356,-1.9367 c -0.1985,-0.1985 -0.4674,-0.3102 -0.7486,-0.3102 h -2.5561 l -6.6099,6.6099 z"
     fill="#f40136"
     id="path2" />
</svg>
