<?xml version="1.0" encoding="UTF-8" standalone="no"?>
<svg
   xmlns:dc="http://purl.org/dc/elements/1.1/"
   xmlns:cc="http://creativecommons.org/ns#"
   xmlns:rdf="http://www.w3.org/1999/02/22-rdf-syntax-ns#"
   xmlns:svg="http://www.w3.org/2000/svg"
   xmlns="http://www.w3.org/2000/svg"
   xmlns:sodipodi="http://sodipodi.sourceforge.net/DTD/sodipodi-0.dtd"
   xmlns:inkscape="http://www.inkscape.org/namespaces/inkscape"
   width="66"
   height="66"
   viewBox="0 0 66 66"
   fill="none"
   version="1.1"
   id="svg4"
   sodipodi:docname="Icon5.svg"
   inkscape:version="1.0.1 (3bc2e813f5, 2020-09-07)">
  <metadata
     id="metadata10">
    <rdf:RDF>
      <cc:Work
         rdf:about="">
        <dc:format>image/svg+xml</dc:format>
        <dc:type
           rdf:resource="http://purl.org/dc/dcmitype/StillImage" />
        <dc:title></dc:title>
      </cc:Work>
    </rdf:RDF>
  </metadata>
  <defs
     id="defs8" />
  <sodipodi:namedview
     pagecolor="#ffffff"
     bordercolor="#666666"
     borderopacity="1"
     objecttolerance="10"
     gridtolerance="10"
     guidetolerance="10"
     inkscape:pageopacity="0"
     inkscape:pageshadow="2"
     inkscape:window-width="1198"
     inkscape:window-height="1311"
     id="namedview6"
     showgrid="false"
     showguides="true"
     inkscape:guide-bbox="true"
     inkscape:zoom="9.4280904"
     inkscape:cx="22.984837"
     inkscape:cy="48.35944"
     inkscape:window-x="2392"
     inkscape:window-y="0"
     inkscape:window-maximized="0"
     inkscape:current-layer="svg4" />
  <circle
     cx="33"
     cy="33"
     r="33"
     fill="#D0D0D0"
     fill-opacity="0.12"
     id="circle2" />
  <path
     d="m 18.06668,41.8108 c 1.189754,0 2.302554,-0.5853 2.976514,-1.5657 l 1.76759,-2.5711 c 2.0822,3.7334 6.04045,6.1436 10.50705,6.1436 6.2326,0 11.3745,-4.7606 11.9807,-10.83635 h -1.1444 c -0.447,0 -0.8574,-0.24775 -1.0656,-0.64355 -0.2081,-0.39572 -0.1798,-0.87426 0.0735,-1.24267 l 1.7552,-2.55299 2.6596,-3.86862 c 0.2245,-0.32667 0.5956,-0.521916 0.9922,-0.521916 0.0495,0 0.0987,0.003 0.1473,0.009 0.0486,0.006 0.0964,0.01492 0.1435,0.02658 0.1175,0.02927 0.2297,0.07598 0.3327,0.138342 0.1441,0.08723 0.2704,0.20504 0.3687,0.34795 l 4.4148,6.42161 c 0.2533,0.36841 0.2816,0.84703 0.0735,1.24267 -0.2082,0.39563 -0.6186,0.64363 -1.0657,0.64363 h -1.2424 c -0.2865,4.47815 -2.1675,8.64895 -5.3691,11.85055 -3.487,3.4871 -8.1232,5.4074 -13.0545,5.4074 -4.9314,0 -9.56757,-1.9203 -13.05458,-5.4074 -0.927,-0.927 -1.74787,-1.9439 -2.452639,-3.0308 0.08495,0.0059 0.170223,0.0098 0.256065,0.0098 z"
     fill="#f40136"
     id="path2" />
  <path
     d="m 12.024059,32.202902 c 0.20821,-0.3957 0.618519,-0.6435 1.065676,-0.6435 h 1.24242 c 0.28647,-4.4782 2.16747,-8.64892 5.36907,-11.8506 3.48688,-3.48693 8.12318,-5.4073 13.05448,-5.4073 4.9313,0 9.5676,1.92037 13.0545,5.40738 0.927,0.92701 1.7479,1.94393 2.4527,3.03089 -0.0849,-0.006 -0.1702,-0.0099 -0.256,-0.0099 -1.1899,0 -2.3026,0.58534 -2.9765,1.56574 l -1.7676,2.57114 c -2.0822,-3.73342 -6.0404,-6.14358 -10.507,-6.14358 -6.2327,0 -11.37454,4.76068 -11.98075,10.83638 h 1.14435 c 0.4471,0 0.8575,0.2477 1.0656,0.6435 0.2081,0.3957 0.1798,0.8743 -0.0735,1.2427 l -1.75517,2.553 -2.65963,3.8686 c -0.05617,0.0817 -0.12146,0.1551 -0.19402,0.2194 -0.21767,0.1927 -0.5008,0.3025 -0.7982,0.3025 -0.39645,0 -0.76763,-0.1952 -0.99222,-0.5219 l -1.59412,-2.3188 -2.820634,-4.1027 c -0.253376,-0.3687 -0.281582,-0.8472 -0.07345,-1.2429 z"
     fill="#f40136"
     id="path2-0" />
</svg>
