<?xml version="1.0" encoding="UTF-8" standalone="no"?>
<svg
   xmlns:dc="http://purl.org/dc/elements/1.1/"
   xmlns:cc="http://creativecommons.org/ns#"
   xmlns:rdf="http://www.w3.org/1999/02/22-rdf-syntax-ns#"
   xmlns:svg="http://www.w3.org/2000/svg"
   xmlns="http://www.w3.org/2000/svg"
   xmlns:sodipodi="http://sodipodi.sourceforge.net/DTD/sodipodi-0.dtd"
   xmlns:inkscape="http://www.inkscape.org/namespaces/inkscape"
   width="66"
   height="66"
   viewBox="0 0 66 66"
   fill="none"
   version="1.1"
   id="svg4"
   sodipodi:docname="ParacucheIcon.svg"
   inkscape:version="1.0.1 (3bc2e813f5, 2020-09-07)">
  <metadata
     id="metadata10">
    <rdf:RDF>
      <cc:Work
         rdf:about="">
        <dc:format>image/svg+xml</dc:format>
        <dc:type
           rdf:resource="http://purl.org/dc/dcmitype/StillImage" />
        <dc:title></dc:title>
      </cc:Work>
    </rdf:RDF>
  </metadata>
  <defs
     id="defs8" />
  <sodipodi:namedview
     pagecolor="#ffffff"
     bordercolor="#666666"
     borderopacity="1"
     objecttolerance="10"
     gridtolerance="10"
     guidetolerance="10"
     inkscape:pageopacity="0"
     inkscape:pageshadow="2"
     inkscape:window-width="1200"
     inkscape:window-height="1312"
     id="namedview6"
     showgrid="false"
     showguides="true"
     inkscape:guide-bbox="true"
     inkscape:zoom="9.4280904"
     inkscape:cx="32.057594"
     inkscape:cy="47.876392"
     inkscape:window-x="3591"
     inkscape:window-y="0"
     inkscape:window-maximized="0"
     inkscape:current-layer="svg4">
    <sodipodi:guide
       position="32.456201,44.468599"
       orientation="1,0"
       id="guide12" />
    <sodipodi:guide
       position="24.4125,33.50625"
       orientation="0,-1"
       id="guide14" />
  </sodipodi:namedview>
  <circle
     cx="32.981251"
     cy="33"
     r="33"
     fill="#d0d0d0"
     fill-opacity="0.12"
     id="circle2" />
  <path
     d="m 51.41366,31.018846 -0.7828,-2.7408 c -2.2972,-8.03859 -9.8142,-13.652839 -18.1747,-13.652839 -8.3605,0 -15.87744,5.614249 -18.17465,13.652939 l -0.782781,2.7407 c -0.120679,0.424 0.02063,0.8806 0.359885,1.1622 0.339178,0.2805 0.813206,0.3337 1.208946,0.1391 2.47443,-1.2404 5.50469,-1.2393 7.98344,-0.0011 0.31528,0.1566 0.68276,0.1566 0.99586,0 2.4766,-1.2372 5.4359,-1.2372 7.9125,0 0.3131,0.1566 0.6827,0.1566 0.9959,0 2.4777,-1.2372 5.4337,-1.2361 7.9092,0.0011 0.3131,0.1566 0.6827,0.1566 0.9958,0 2.4766,-1.2393 5.508,-1.2393 7.9846,0 0.3959,0.1966 0.8681,0.1437 1.2089,-0.1391 0.3393,-0.2816 0.4806,-0.7382 0.3599,-1.1622 z"
     fill="#f40136"
     id="path2" />
  <path
     d="m 49.71606,30.758573 -12.8987,11.22126 5.6176,-9.83078 c 0.3055,-0.53378 0.1196,-1.21436 -0.4142,-1.518804 -0.5338,-0.308748 -1.2143,-0.120678 -1.5188,0.414214 l -6.8264,11.94597 v -11.39475 c 0,-0.61535 -0.498,-1.113277 -1.1133,-1.113277 -0.6154,0 -1.1133,0.497927 -1.1133,1.113277 v 11.39475 l -6.8264,-11.9459 c -0.3054,-0.534888 -0.9882,-0.722957 -1.51877,-0.414209 -0.53378,0.304439 -0.71969,0.984949 -0.41421,1.518799 l 5.61758,9.83071 -12.89877,-11.22126 -1.465515,1.67644 17.506085,15.25292 v 1.7213 c 0,0.6153 0.4979,1.1132 1.1133,1.1132 0.6153,0 1.1133,-0.4979 1.1133,-1.1132 v -1.7213 l 17.5061,-15.25292 z"
     fill="#f40136"
     id="path2-4" />
</svg>
