<?xml version="1.0" encoding="UTF-8" standalone="no"?>
<svg
   xmlns:dc="http://purl.org/dc/elements/1.1/"
   xmlns:cc="http://creativecommons.org/ns#"
   xmlns:rdf="http://www.w3.org/1999/02/22-rdf-syntax-ns#"
   xmlns:svg="http://www.w3.org/2000/svg"
   xmlns="http://www.w3.org/2000/svg"
   xmlns:sodipodi="http://sodipodi.sourceforge.net/DTD/sodipodi-0.dtd"
   xmlns:inkscape="http://www.inkscape.org/namespaces/inkscape"
   width="66"
   height="66"
   viewBox="0 0 66 66"
   fill="none"
   version="1.1"
   id="svg4"
   sodipodi:docname="Icon6.svg"
   inkscape:version="1.0.1 (3bc2e813f5, 2020-09-07)">
  <metadata
     id="metadata10">
    <rdf:RDF>
      <cc:Work
         rdf:about="">
        <dc:format>image/svg+xml</dc:format>
        <dc:type
           rdf:resource="http://purl.org/dc/dcmitype/StillImage" />
        <dc:title></dc:title>
      </cc:Work>
    </rdf:RDF>
  </metadata>
  <defs
     id="defs8" />
  <sodipodi:namedview
     pagecolor="#ffffff"
     bordercolor="#666666"
     borderopacity="1"
     objecttolerance="10"
     gridtolerance="10"
     guidetolerance="10"
     inkscape:pageopacity="0"
     inkscape:pageshadow="2"
     inkscape:window-width="1198"
     inkscape:window-height="1311"
     id="namedview6"
     showgrid="false"
     showguides="true"
     inkscape:guide-bbox="true"
     inkscape:zoom="9.4280904"
     inkscape:cx="24.252732"
     inkscape:cy="43.866473"
     inkscape:window-x="2392"
     inkscape:window-y="0"
     inkscape:window-maximized="0"
     inkscape:current-layer="svg4" />
  <circle
     cx="33"
     cy="33"
     r="33"
     fill="#D0D0D0"
     fill-opacity="0.12"
     id="circle2" />
  <path
     d="m 46.4492,27.37276 h -6.7058 c -0.6178,0 -1.1176,0.50004 -1.1176,1.11794 0,0.6169 -0.501,1.118 -1.1176,1.118 -0.6167,0 -1.1176,-0.501 -1.1176,-1.118 0,-0.6179 -0.5,-1.11794 -1.1176,-1.11794 H 15.1551 c -0.617811,0 -1.1176,0.50004 -1.1176,1.11794 v 4.4717 c 0,0.618 0.499914,1.118 1.1176,1.118 1.84892,0 3.35294,1.5044 3.35294,3.3538 0,1.8494 -1.50402,3.3538 -3.35294,3.3538 -0.617811,0 -1.1176,0.5001 -1.1176,1.118 v 4.4717 c 0,0.6179 0.499914,1.118 1.1176,1.118 h 20.1176 c 0.6178,0 1.1176,-0.5001 1.1176,-1.118 0,-0.6168 0.5009,-1.118 1.1176,-1.118 0.6167,0 1.1176,0.501 1.1176,1.118 0,0.6179 0.4999,1.118 1.1176,1.118 h 6.7059 c 0.6178,0 1.1176,-0.5001 1.1176,-1.118 v -17.887 c 4e-4,-0.6179 -0.4995,-1.11794 -1.1174,-1.11794 z M 26.3316,34.0804 c 0.6172,0 1.1176,0.5004 1.1176,1.118 0,0.6173 -0.5004,1.118 -1.1176,1.118 -0.6172,0 -1.1176,-0.5006 -1.1176,-1.118 0,-0.6176 0.5004,-1.118 1.1176,-1.118 z m -0.7902,6.38 c -0.4366,-0.4367 -0.4366,-1.1442 0,-1.5808 l 4.4706,-4.4717 c 0.4366,-0.4367 1.1439,-0.4367 1.5804,0 0.4366,0.4366 0.4366,1.1442 0,1.5808 l -4.4706,4.4717 c -0.4366,0.4367 -1.1437,0.4367 -1.5804,0 z m 5.2608,0.3275 c -0.6172,0 -1.1176,-0.5005 -1.1176,-1.118 0,-0.6174 0.5004,-1.118 1.1176,-1.118 0.6172,0 1.1176,0.5005 1.1176,1.118 10e-5,0.6175 -0.5003,1.118 -1.1176,1.118 z M 38.6258,39.67 c 0,0.618 -0.4999,1.118 -1.1176,1.118 -0.6179,0 -1.1176,-0.5 -1.1176,-1.118 v -4.4716 c 0,-0.618 0.4999,-1.118 1.1176,-1.118 0.6178,0 1.1176,0.5 1.1176,1.118 z M 50.9199,18.4293 H 44.214 c -0.6178,0 -1.1176,0.500039 -1.1176,1.11798 0,0.61681 -0.5009,1.11798 -1.1176,1.11798 -0.6167,0 -1.1176,-0.50117 -1.1176,-1.11798 0,-0.617941 -0.4999,-1.11798 -1.1176,-1.11798 H 19.62577 c -0.61782,0 -1.11761,0.500039 -1.11761,1.11798 v 4.47179 c 0,0.61795 0.49992,1.11799 1.11761,1.11799 H 35.2728 c 0.8579,0 1.6416,0.32425 2.2354,0.85587 0.5937,-0.53162 1.3774,-0.85587 2.2353,-0.85587 h 6.7059 c 1.8489,0 3.3529,1.50439 3.3529,3.35384 v 10.0614 h 1.1176 c 0.6178,0 1.1176,-0.5 1.1176,-1.118 V 19.54728 c 0,-0.617941 -0.4999,-1.11798 -1.1176,-1.11798 z"
     fill="#f40136"
     id="path2" />
</svg>
