<?xml version="1.0" encoding="UTF-8" standalone="no"?>
<svg
   xmlns:dc="http://purl.org/dc/elements/1.1/"
   xmlns:cc="http://creativecommons.org/ns#"
   xmlns:rdf="http://www.w3.org/1999/02/22-rdf-syntax-ns#"
   xmlns:svg="http://www.w3.org/2000/svg"
   xmlns="http://www.w3.org/2000/svg"
   xmlns:sodipodi="http://sodipodi.sourceforge.net/DTD/sodipodi-0.dtd"
   xmlns:inkscape="http://www.inkscape.org/namespaces/inkscape"
   width="26"
   height="26"
   viewBox="0 0 26 26"
   fill="none"
   version="1.1"
   id="svg4"
   sodipodi:docname="Power_Icon.svg"
   inkscape:version="1.0.1 (3bc2e813f5, 2020-09-07)">
  <metadata
     id="metadata10">
    <rdf:RDF>
      <cc:Work
         rdf:about="">
        <dc:format>image/svg+xml</dc:format>
        <dc:type
           rdf:resource="http://purl.org/dc/dcmitype/StillImage" />
        <dc:title></dc:title>
      </cc:Work>
    </rdf:RDF>
  </metadata>
  <defs
     id="defs8" />
  <sodipodi:namedview
     pagecolor="#ffffff"
     bordercolor="#666666"
     borderopacity="1"
     objecttolerance="10"
     gridtolerance="10"
     guidetolerance="10"
     inkscape:pageopacity="0"
     inkscape:pageshadow="2"
     inkscape:window-width="958"
     inkscape:window-height="1041"
     id="namedview6"
     showgrid="false"
     showguides="true"
     inkscape:guide-bbox="true"
     inkscape:zoom="11.313709"
     inkscape:cx="4.8153982"
     inkscape:cy="33.79185"
     inkscape:window-x="-8"
     inkscape:window-y="0"
     inkscape:window-maximized="0"
     inkscape:current-layer="svg4" />
  <rect
     width="26"
     height="26"
     rx="13"
     fill="#F2F2F2"
     id="rect2" />
  <path
     d="M 11.777656,12.452692 V 6.4581817 c 0,-0.661524 0.53737,-1.198896 1.1989,-1.198896 0.66153,0 1.1989,0.537372 1.1989,1.198896 v 5.9945103 c 0,0.66152 -0.53737,1.1989 -1.1989,1.1989 -0.66153,0 -1.1989,-0.53738 -1.1989,-1.1989 z m 5.95119,-5.4354902 c -0.3884,-0.30752 -0.955,-0.24003 -1.2626,0.14899 -0.3075,0.38966 -0.2406,0.95505 0.149,1.26321 1.4262,1.12504 2.2438,2.8097402 2.2438,4.6230502 0,3.24335 -2.6392,5.88245 -5.88185,5.88245 -3.24334,0 -5.88245,-2.6391 -5.88245,-5.88245 0,-1.81267 0.81688,-3.4967402 2.24181,-4.6211402 0.38966,-0.30753 0.45651,-0.87291 0.14899,-1.26321 -0.30753,-0.3896601 -0.87228,-0.4558701 -1.26321,-0.14899 -1.85979,1.46759 -2.926257,3.6667402 -2.926257,6.0333402 0,4.23535 3.445807,7.68045 7.680477,7.68045 4.23469,0 7.68049,-3.4458 7.68049,-7.68045 0,-2.36787 -1.0678,-4.5670202 -2.9282,-6.0352502 z"
     fill="#f40136"
     id="path2" />
</svg>
