<svg width="39" height="39" viewBox="0 0 39 39" fill="none" xmlns="http://www.w3.org/2000/svg">
<path d="M19.5 39C30.2696 39 39 30.2696 39 19.5C39 8.73045 30.2696 0 19.5 0C8.73045 0 0 8.73045 0 19.5C0 30.2696 8.73045 39 19.5 39Z" fill="#F40136"/>
<path fill-rule="evenodd" clip-rule="evenodd" d="M5.78731 33.3639C5.83664 33.191 5.88911 33.0158 5.94478 32.8383C6.43483 31.2746 7.12329 29.5594 8.01008 27.6924C8.8969 25.8254 9.94706 23.7951 11.1606 21.6014C12.3741 19.4311 13.6926 17.1324 15.1162 14.7054H8.36014V12.535H16.3414L17.9867 9.66457H8.36014V7.52927H19.1768C20.5771 4.98552 21.6155 2.85019 22.2923 1.12325C22.4065 0.821521 22.5107 0.529049 22.6049 0.245837C21.5938 0.0840536 20.5567 0 19.5 0C8.73044 0 0 8.73044 0 19.5C0 24.9233 2.21393 29.8296 5.78731 33.3639ZM25.4481 0.92381C25.1987 1.41329 24.9286 1.93484 24.6377 2.48847C23.8909 3.88867 22.9574 5.56894 21.8372 7.52927H28.0682V9.66457H20.612L18.9668 12.535H28.0682V14.7054H19.6319C20.0286 15.5922 20.4137 16.4323 20.7871 17.2258C21.1605 18.0425 21.5105 18.8244 21.8372 19.5711C23.3541 22.955 24.5793 25.6854 25.5128 27.7624C26.4463 29.8393 27.2281 31.438 27.8582 32.5581C28.4883 33.7017 29.0249 34.4602 29.4685 34.8336C29.8777 35.1998 30.307 35.3971 30.7564 35.4252C35.7441 31.8931 39 26.0768 39 19.5C39 10.8047 33.3089 3.43871 25.4481 0.92381ZM25.932 37.9143C25.7319 37.7563 25.5338 37.5696 25.3378 37.354C24.8477 36.8404 24.3343 36.1404 23.7975 35.2537C23.2375 34.39 22.619 33.2934 21.9423 31.9631C21.2655 30.6328 20.4954 29.0344 19.6319 27.1673C18.7451 25.3004 17.7183 23.13 16.5514 20.6563L15.6763 18.766C14.9528 20.0262 14.2177 21.3447 13.4709 22.7216C12.7242 24.0985 12.0474 25.4754 11.4406 26.8523C10.8339 28.2291 10.3438 29.5944 9.97041 30.9479C9.57367 32.3015 9.37531 33.5733 9.37531 34.7636C9.37531 35.3214 9.42429 35.8192 9.52225 36.2574C12.4413 37.9992 15.8538 39 19.5 39C21.7537 39 23.9182 38.6177 25.932 37.9143Z" fill="white"/>
</svg>
