<?xml version="1.0" encoding="UTF-8" standalone="no"?>
<svg
   xmlns:dc="http://purl.org/dc/elements/1.1/"
   xmlns:cc="http://creativecommons.org/ns#"
   xmlns:rdf="http://www.w3.org/1999/02/22-rdf-syntax-ns#"
   xmlns:svg="http://www.w3.org/2000/svg"
   xmlns="http://www.w3.org/2000/svg"
   xmlns:sodipodi="http://sodipodi.sourceforge.net/DTD/sodipodi-0.dtd"
   xmlns:inkscape="http://www.inkscape.org/namespaces/inkscape"
   width="31"
   height="31"
   viewBox="0 0 31 31"
   fill="none"
   version="1.1"
   id="svg4"
   sodipodi:docname="Button2.svg"
   inkscape:version="1.0.1 (3bc2e813f5, 2020-09-07)">
  <metadata
     id="metadata10">
    <rdf:RDF>
      <cc:Work
         rdf:about="">
        <dc:format>image/svg+xml</dc:format>
        <dc:type
           rdf:resource="http://purl.org/dc/dcmitype/StillImage" />
        <dc:title></dc:title>
      </cc:Work>
    </rdf:RDF>
  </metadata>
  <defs
     id="defs8" />
  <sodipodi:namedview
     pagecolor="#ffffff"
     bordercolor="#666666"
     borderopacity="1"
     objecttolerance="10"
     gridtolerance="10"
     guidetolerance="10"
     inkscape:pageopacity="0"
     inkscape:pageshadow="2"
     inkscape:window-width="958"
     inkscape:window-height="1041"
     id="namedview6"
     showgrid="false"
     showguides="true"
     inkscape:guide-bbox="true"
     inkscape:zoom="8"
     inkscape:cx="10.515558"
     inkscape:cy="38.466109"
     inkscape:window-x="-8"
     inkscape:window-y="0"
     inkscape:window-maximized="0"
     inkscape:current-layer="svg4">
    <sodipodi:guide
       position="15.993182,26.649432"
       orientation="1,0"
       id="guide12" />
    <sodipodi:guide
       position="15.024432,14.971591"
       orientation="0,-1"
       id="guide14" />
  </sodipodi:namedview>
  <path
     d="M15.5 31C24.0604 31 31 24.0604 31 15.5C31 6.93959 24.0604 0 15.5 0C6.93959 0 0 6.93959 0 15.5C0 24.0604 6.93959 31 15.5 31Z"
     fill="white"
     id="path2" />
  <path
     d="m 9.1367175,16.027344 c 0,0.29123 -0.23611,0.52734 -0.52734,0.52734 h -1.089846 c -0.291235,0 -0.527344,-0.23611 -0.527344,-0.52734 0,-0.29123 0.236109,-0.52734 0.527344,-0.52734 h 1.089846 c 0.29123,0 0.52734,0.23611 0.52734,0.52734 z m 15.3281695,0.52734 h -1.0899 c -0.2912,0 -0.5273,-0.23611 -0.5273,-0.52734 0,-0.29123 0.2361,-0.52734 0.5273,-0.52734 h 1.0899 c 0.2912,0 0.5273,0.23611 0.5273,0.52734 0,0.29123 -0.2361,0.52734 -0.5273,0.52734 z m -8.472699,8.47266 c -0.291231,0 -0.527341,-0.2361 -0.527341,-0.5273 v -1.0899 c 0,-0.2912 0.23611,-0.5273 0.527341,-0.5273 0.291229,0 0.52734,0.2361 0.52734,0.5273 v 1.0899 c 0,0.2912 -0.236111,0.5273 -0.52734,0.5273 z m 0,-15.8554702 c -0.291231,0 -0.527341,-0.23611 -0.527341,-0.52734 V 7.5546877 c 0,-0.291235 0.23611,-0.527344 0.527341,-0.527344 0.291229,0 0.52734,0.236109 0.52734,0.527344 v 1.0898461 c 0,0.29123 -0.236111,0.52734 -0.52734,0.52734 z m -5.59332,2.0079202 -0.7457705,-0.74577 c -0.20595,-0.20595 -0.20595,-0.5398302 0,-0.7457702 0.20594,-0.20595 0.5398605,-0.20591 0.7457705,0 l 0.74577,0.7457702 c 0.20594,0.20594 0.20594,0.53982 0,0.74577 -0.20591,0.20598 -0.53983,0.20598 -0.74577,0 z m 11.186619,9.69515 0.7458,0.7457 c 0.2059,0.206 0.2059,0.5398 0,0.7458 -0.2059,0.2059 -0.5398,0.2059 -0.7458,0 l -0.7457,-0.7458 c -0.206,-0.2059 -0.206,-0.5398 0,-0.7457 0.2059,-0.206 0.5398,-0.206 0.7457,0 z m -11.186619,1.4915 c -0.20591,0.2059 -0.5398305,0.2059 -0.7457705,0 -0.20595,-0.206 -0.20595,-0.5398 0,-0.7458 l 0.7457705,-0.7457 c 0.20594,-0.206 0.53986,-0.206 0.74577,0 0.20594,0.2059 0.20594,0.5398 0,0.7457 z m 11.186619,-11.18665 c -0.2059,0.20594 -0.5398,0.20594 -0.7457,0 -0.206,-0.20595 -0.206,-0.53983 0,-0.74577 l 0.7457,-0.7457702 c 0.206,-0.20595 0.5399,-0.20591 0.7458,0 0.2059,0.20594 0.2059,0.5398202 0,0.7457702 z m -8.21677,-1.4860902 c -0.268979,0.11148 -0.577539,-0.01632 -0.688989,-0.2854 l -0.403631,-0.97439 c -0.111439,-0.26905 0.01632,-0.5775501 0.285401,-0.6889951 0.26993,-0.1118319 0.57794,0.017225 0.689,0.2853951 l 0.40362,0.97439 c 0.11145,0.26905 -0.01631,0.57755 -0.285401,0.689 z m 6.054171,14.6160402 c -0.269101,0.1115 -0.577601,-0.0163 -0.689,-0.2854 l -0.403601,-0.9744 c -0.1115,-0.269 0.0163,-0.5775 0.2854,-0.689 0.2694,-0.1116 0.5777,0.0168 0.689,0.2854 l 0.4036,0.9744 c 0.1115,0.2691 -0.0163,0.5776 -0.285399,0.689 z m -11.4277305,-5.5407 0.97439,-0.4036 c 0.06599,-0.0274 0.13434,-0.0403 0.20159,-0.0403 0.20693,0 0.40328,0.1226 0.48741,0.3257 0.11144,0.269 -0.01632,0.5775 -0.2854,0.689 l -0.97439,0.4036 c -0.26909,0.1115 -0.577551,-0.0163 -0.688996,-0.2854 -0.111445,-0.2691 0.016313,-0.5775 0.285396,-0.689 z m 15.9940295,-5.4834 -0.9744,0.40363 c -0.269099,0.11145 -0.5775,-0.01627 -0.689,-0.28539 -0.1114,-0.26906 0.0164,-0.57755 0.2854,-0.689 l 0.9744,-0.40363 c 0.27,-0.11183 0.578,0.01723 0.689,0.2854 0.1115,0.26905 -0.0163,0.57751 -0.2854,0.68899 z m -4.6845,-3.8773102 c -0.1115,0.2690899 -0.419899,0.39688 -0.689,0.2854 -0.2691,-0.11145 -0.3969,-0.4199401 -0.2854,-0.6889901 l 0.403601,-0.9743899 c 0.1112,-0.2685261 0.419399,-0.3970931 0.689,-0.285401 0.2691,0.1114449 0.396799,0.419941 0.285399,0.688991 z M 13.250498,24.024344 c -0.11145,0.2691 -0.41991,0.3969 -0.689,0.2854 -0.269081,-0.1114 -0.39684,-0.4199 -0.285401,-0.689 l 0.403631,-0.9744 c 0.1112,-0.2685 0.41942,-0.397 0.68899,-0.2854 0.26909,0.1115 0.39685,0.42 0.2854,0.689 z m 9.075289,-5.3735 c 0.1112,-0.2686 0.4195,-0.3971 0.689,-0.2854 l 0.9744,0.4036 c 0.269101,0.1114 0.3969,0.4199 0.2854,0.689 -0.1114,0.2691 -0.4198,0.3969 -0.689,0.2854 l -0.9744,-0.4036 c -0.268999,-0.1115 -0.3968,-0.42 -0.2854,-0.689 z M 9.6585475,13.403884 c -0.11141,0.26908 -0.41991,0.39687 -0.689,0.28539 l -0.97439,-0.40363 c -0.269083,-0.11144 -0.396841,-0.41994 -0.285396,-0.68899 0.111199,-0.26852 0.419416,-0.39709 0.688996,-0.2854 l 0.97439,0.40363 c 0.26908,0.11145 0.39688,0.41994 0.2854,0.689 z"
     fill="#bcbcbc"
     id="path2-4" />
  <path
     d="m 15.992178,10.222647 c 3.20368,0 5.8008,2.597101 5.8008,5.800781 0,3.20368 -2.59712,5.8008 -5.8008,5.8008 -3.20368,0 -5.800781,-2.59712 -5.800781,-5.8008 0,-3.20368 2.597101,-5.800781 5.800781,-5.800781 z"
     fill="#bcbcbc"
     id="path2-5" />
</svg>
