<?xml version="1.0" encoding="UTF-8" standalone="no"?>
<svg
   xmlns:dc="http://purl.org/dc/elements/1.1/"
   xmlns:cc="http://creativecommons.org/ns#"
   xmlns:rdf="http://www.w3.org/1999/02/22-rdf-syntax-ns#"
   xmlns:svg="http://www.w3.org/2000/svg"
   xmlns="http://www.w3.org/2000/svg"
   xmlns:sodipodi="http://sodipodi.sourceforge.net/DTD/sodipodi-0.dtd"
   xmlns:inkscape="http://www.inkscape.org/namespaces/inkscape"
   width="32"
   height="32"
   viewBox="0 0 32 32"
   fill="none"
   version="1.1"
   id="svg4"
   sodipodi:docname="Button1.svg"
   inkscape:version="1.0.1 (3bc2e813f5, 2020-09-07)">
  <metadata
     id="metadata10">
    <rdf:RDF>
      <cc:Work
         rdf:about="">
        <dc:format>image/svg+xml</dc:format>
        <dc:type
           rdf:resource="http://purl.org/dc/dcmitype/StillImage" />
        <dc:title></dc:title>
      </cc:Work>
    </rdf:RDF>
  </metadata>
  <defs
     id="defs8" />
  <sodipodi:namedview
     pagecolor="#ffffff"
     bordercolor="#666666"
     borderopacity="1"
     objecttolerance="10"
     gridtolerance="10"
     guidetolerance="10"
     inkscape:pageopacity="0"
     inkscape:pageshadow="2"
     inkscape:window-width="958"
     inkscape:window-height="1041"
     id="namedview6"
     showgrid="false"
     showguides="true"
     inkscape:guide-bbox="true"
     inkscape:zoom="16"
     inkscape:cx="12.888276"
     inkscape:cy="24.832412"
     inkscape:window-x="-8"
     inkscape:window-y="0"
     inkscape:window-maximized="0"
     inkscape:current-layer="svg4">
    <sodipodi:guide
       position="15.99347,30.945768"
       orientation="1,0"
       id="guide12" />
    <sodipodi:guide
       position="13.79501,16.00653"
       orientation="0,-1"
       id="guide14" />
  </sodipodi:namedview>
  <path
     d="M16 32C24.8366 32 32 24.8366 32 16C32 7.16344 24.8366 0 16 0C7.16344 0 0 7.16344 0 16C0 24.8366 7.16344 32 16 32Z"
     fill="white"
     id="path2" />
  <path
     d="m 24.980178,17.773585 c -0.2094,-0.1295 -0.4806,-0.1057 -0.6646,0.0602 -1.3323,1.2106 -3.0468,1.8769 -4.8273,1.8769 -3.97235,0 -7.20435,-3.2376 -7.20435,-7.21695 0,-1.78362 0.66513,-3.5011199 1.87356,-4.8358699 0.16563,-0.18382 0.1905,-0.45488 0.06007,-0.66575 -0.13044,-0.210378 -0.38425,-0.307941 -0.62182,-0.241253 -4.03506,1.143933 -6.85356,4.8754329 -6.85356,9.0737229 0,5.204 4.22612,9.4375 9.421,9.4375 4.1909,0 7.9159,-2.8234 9.0579,-6.8656 0.0676,-0.2385 -0.0309,-0.4922 -0.2409,-0.6229 z m -7.4919,-5.0556 c 0.9167,0 1.6625,0.74706 1.6625,1.66544 0,0.30687 0.2478,0.55512 0.5541,0.55512 0.3064,0 0.5542,-0.24831 0.5542,-0.55512 0,-0.91838 0.7458,-1.66544 1.6625,-1.66544 0.3064,0 0.5542,-0.24831 0.5542,-0.55512 0,-0.30688 -0.2478,-0.55513 -0.5542,-0.55513 -0.9167,0 -1.6625,-0.74706 -1.6625,-1.6654399 0,-0.30687 -0.2478,-0.55512 -0.5542,-0.55512 -0.3063,0 -0.5541,0.24831 -0.5541,0.55512 0,0.9183799 -0.7458,1.6654399 -1.6625,1.6654399 -0.3063,0 -0.5542,0.24831 -0.5542,0.55513 0,0.30681 0.2479,0.55512 0.5542,0.55512 z"
     fill="#5558ff"
     id="path2-9" />
</svg>
